{"title":"The.Three.Musketeers.2011.iNTERNAL.DVDRip.XviD-EXViDiNT","uid":7058209,"size":743741282,"categoryP":"video","categoryS":"movies","magnet":"?xt=urn:btih:bc9b100ff9b7fb0ed4c5c305dae2d90aa1d28c82&amp;dn=The.Three.Musketeers.2011.iNTERNAL.DVDRip.XviD-EXViDiNT&amp;tr=udp%3A%2F%2Ftracker.openbittorrent.com%3A80&amp;tr=udp%3A%2F%2Fopen.demonii.com%3A1337&amp;tr=udp%3A%2F%2Ftracker.coppersurfer.tk%3A6969&amp;tr=udp%3A%2F%2Fexodus.desync.com%3A6969","seeders":1,"leechers":0,"uploader":"TvTeam","files":7,"time":1330234601,"description":". \n &lt;a href=&quot;\nhttp://www.torrenting.com&quot; rel=&quot;nofollow&quot; target=&quot;_NEW&quot;&gt;\nhttp://www.torrenting.com&lt;/a&gt;          :     Once &amp; For all ;)\n\n\n               www . Torrenting . Com \n\n(((((((((((((= Enjoy No RAR releases =))))))))))))))))))))\n\n\n...................................NFO:....................................\n\n.                                                                                                     \n       \n     \n     \n       \n       \n     \n     \n                                         \n                                         \n                EXVID                    \n                                         \n         \n                                         \n         Filled the Archives             \n                                         \n         \n                                         \n                With:                    \n                                         \n         \n                                         \n                                    \n     E240                           \n                                    \n     SP               (C) 2009      \n                                         \n     \n     \n     \n                                                                                  \n                                                                                   \n        The.Three.Musketeers.2011.iNTERNAL.DVDRip.XviD-EXViDiNT                     \n                                                                                   \n                                                                                  \n     \n                                                                                               \nEXViD aims to iNTERNAL those releases which have been lost in the archives.\nEXViD aims to PRE non-internal releases which have poor sources and are likely skipped by others. &lt;a href=&quot;\nhttp://www.imdb.com/title/tt1509767/&quot; rel=&quot;nofollow&quot; target=&quot;_NEW&quot;&gt;\nhttp://www.imdb.com/title/tt1509767/&lt;/a&gt;\nSubtitles: NL, FR\nDate: 2012.02\n\nDirector: Paul W.S. Anderson\n\nGenres: Action | Adventure | Romance\n\nPlot:\nThe hot-headed young D'Artagnan along with three former legendary but now down on their luck\nMusketeers must unite and defeat a beautiful double agent and her villainous employer from\nseizing the French throne and engulfing Europe in war.\n\nCast:\nMatthew Macfadyen \t ... \tAthos \nMilla Jovovich \t ... \tMilady de Winter \nLuke Evans \t ... \tAramis \nHelen George \t ... \t Blonde \nChristian Oliver \t ... \t Venetian Nobleman \nRay Stevenson \t ... \tPorthos \nTil Schweiger \t ... \tCagliostro \nMarkus Brandl \t ... \t Sergeant Venetian Guard \nOrlando Bloom \t ... \tDuke of Buckingham \nLogan Lerman \t ... \tD'Artagnan \nDexter Fletcher \t ... \tD'Artagnan's Father \nJane Perry \t ... \tD'Artagnan's Mother \nMads Mikkelsen \t ... \tRochefort \nAndy Gathergood \t ... \t Drunk \nBen Moor \t ... \t Tailor\n\nStats:\nFormat                           : AVI\nFormat/Info                      : Audio Video Interleave\nFile size                        : 1.37 GiB\nDuration                         : 1h 45mn\nOverall bit rate                 : 1 850 Kbps\nWriting application              : VirtualDubMod 1.5.10.2 (build 2540/release)\nWriting library                  : VirtualDubMod build 2540/release\n\nVideo\nID                               : 0\nFormat                           : MPEG-4 Visual\nFormat profile                   : Advanced Simple@L5\nFormat settings, BVOP            : Yes\nFormat settings, QPel            : No\nFormat settings, GMC             : No warppoints\nFormat settings, Matrix          : Default (H.263)\nMuxing mode                      : Packed bitstream\nCodec ID                         : XVID\nCodec ID/Hint                    : XviD\nDuration                         : 1h 45mn\nBit rate                         : 1 392 Kbps\nWidth                            : 640 pixels\nHeight                           : 272 pixels\nDisplay aspect ratio             : 2.35:1\nFrame rate                       : 25.000 fps\nColor space                      : YUV\nChroma subsampling               : 4:2:0\nBit depth                        : 8 bits\nScan type                        : Progressive\nBits/(Pixel*Frame)               : 0.320\nStream size                      : 1.03 GiB (75%)\nWriting library                  : XviD 62\n\nAudio\nID                               : 1\nFormat                           : AC-3\nFormat/Info                      : Audio Coding 3\nMode extension                   : CM (complete main)\nCodec ID                         : 2000\nDuration                         : 1h 45mn\nBit rate mode                    : Constant\nBit rate                         : 448 Kbps\nChannel(s)                       : 6 channels\nChannel positions                : Front: L C R, Side: L R, LFE\nSampling rate                    : 48.0 KHz\nBit depth                        : 16 bits\nStream size                      : 339 MiB (24%)\nAlignment                        : Split accross interleaves\nInterleave, duration             : 40 ms (1.00 video frame)\nInterleave, preload duration     : 500 ms\n\n\n\n\nRelease notes:\n\nShitfix? Syncfix? Hell no!\n\nenjoy!\n\nLooking for:\n75TB+ Archives\nDUTCH/FLEMiSH Archives\n                                                                                                    \nGreets: CRBS EPiSODE FiCO FLS iLS KLASSiGER LiPSYNC MADE NODLABS RUNNER SPRiNTER      \n   \n\n                                                                    ASCII DONE BY XX^NFO 2oo9","torrent":{"xt":"urn:btih:bc9b100ff9b7fb0ed4c5c305dae2d90aa1d28c82","amp;dn":"The.Three.Musketeers.2011.iNTERNAL.DVDRip.XviD-EXViDiNT","amp;tr":["udp%3A%2F%2Ftracker.openbittorrent.com%3A80","udp%3A%2F%2Fopen.demonii.com%3A1337","udp%3A%2F%2Ftracker.coppersurfer.tk%3A6969","udp%3A%2F%2Fexodus.desync.com%3A6969"],"infoHash":"bc9b100ff9b7fb0ed4c5c305dae2d90aa1d28c82","infoHashBuffer":{"type":"Buffer","data":[188,155,16,15,249,183,251,14,212,197,195,5,218,226,217,10,161,210,140,130]},"announce":[],"urlList":[]}}